<svg xmlns="http://www.w3.org/2000/svg" viewBox="0 0 16 16">
  <circle cx="8" cy="8" r="7.5" stroke="#A4A4A4" fill="none"/>
  <path fill="#A4A4A4" d="M7.623 3.154a.539.539 0 0 1 .694-.051l.06.05 1.96 1.919a.542.542 0 0 1 .01.765.539.539 0 0 1-.702.06l-.061-.05L8 4.296l-1.584 1.55a.539.539 0 0 1-.703.043l-.06-.053a.542.542 0 0 1-.043-.705l.053-.06 1.96-1.918zm0 9.692c.19.187.484.204.694.051l.06-.05 1.96-1.919a.542.542 0 0 0 .01-.765.539.539 0 0 0-.702-.06l-.061.05L8 11.704l-1.584-1.55a.539.539 0 0 0-.703-.043l-.06.053a.542.542 0 0 0-.043.705l.053.06 1.96 1.918z"/>
</svg>
